<?xml version="1.0" encoding="UTF-8"?><svg version="1.1" xmlns="http://www.w3.org/2000/svg" xmlns:xlink="http://www.w3.org/1999/xlink" viewBox="0 0 1280 720" width="1280" height="720" x="0px" y="0px">
    
    
    <!-- ITEM 0 -->
    <g>
        <defs>
            <clipPath id="clip-path-id-viewbox-item-0">
                <rect x="0.0" y="0.0" width="1920.0" height="1080.0"/>
            </clipPath>
        </defs>
        <g transform="translate(0.0 0.0) rotate(0.0 642.5 362.5) scale(0.6692708333333334 0.6712962962962963)">
            <g clip-path="url(#clip-path-id-viewbox-item-0)" transform="translate(-0.0 -0.0)">
                
<g id="Layer_1-i0">
	<rect style="fill:#AAC6FC;" width="1920" height="1080"/>
</g>
<g id="Isolation_Mode-i0">
</g>

            </g>
        </g>
    </g>
    
    <!-- ITEM 1 -->
    <g>
        <defs>
            <clipPath id="clip-path-id-viewbox-item-1">
                <rect x="0.0" y="0.0" width="663.0" height="818.6"/>
            </clipPath>
        </defs>
        <g transform="translate(661.0 86.0) rotate(0.0 221.0 273.0) scale(0.6666666666666666 0.6669924260933301)">
            <g clip-path="url(#clip-path-id-viewbox-item-1)" transform="translate(-0.0 -0.0)">
                
<path fill="#F3F6E6" d="M658,0h-32.9c-2.6,0-4.8,2.1-5,4.7c-3.3,54.2-14.3,95.8-34.7,131.1c-18.4,31.8-42.9,55.6-68.8,80.9  c-54,52.6-115.2,112.3-156,265.6C333,586,250.9,610.6,171.5,634.3c-44.3,13.3-86.2,25.8-118.1,51.3c-17.4,13.8-30.1,30.2-38.9,50  C4.7,757.5,0,783,0,813.6c0,2.8,2.2,5,5,5s5-2.2,5-5h5.8c0,2.8,2.2,5,5,5H658c2.8,0,5-2.2,5-5V5C663,2.2,660.7,0,658,0z"/>

            </g>
        </g>
    </g>
    
    <!-- ITEM 2 -->
    <g>
        <defs>
            <clipPath id="clip-path-id-viewbox-item-2">
                <rect x="0.0" y="0.0" width="782.603" height="818.6"/>
            </clipPath>
        </defs>
        <g transform="translate(182.0 86.0) rotate(0.0 260.0 272.0) scale(0.6644492801586501 0.6645492303933545)">
            <g clip-path="url(#clip-path-id-viewbox-item-2)" transform="translate(-0.0 -0.0)">
                
<path fill="#F3F6E6" d="M777.7,0H56.9C25.5,0,0,25.5,0,56.9v756.7c0,2.8,2.2,5,5,5h105.3c2.8,0,5-2.2,5-5c0-55.1,15-93.3,47.2-120.3  c28.9-24.2,67.9-36.5,109.1-49.4c38.3-12,77.8-24.5,111.6-47.5c38.5-26.2,63.5-62.7,76.5-111.5C500.6,331.1,578.6,280.6,647.4,236  c35.9-23.3,69.8-45.2,94.6-79.3c27.7-38,40.6-86.2,40.6-151.7C782.7,2.2,780.4,0,777.7,0z"/>

            </g>
        </g>
    </g>
    
    <!-- ITEM 3 -->
    <g>
        <defs>
            <clipPath id="clip-path-id-crop-item-3">
                
          <g transform="scale(1.4884615384615385 1.482768361581921)">
          <rect x="0.0" y="0.0" width="129.0" height="283.0"/>
          </g>
        
            </clipPath>
            
            <clipPath id="clip-path-id-viewbox-item-3">
                <rect x="0.0" y="0.0" width="193.5" height="524.9"/>
            </clipPath>
        </defs>
        <g clip-path="url(#clip-path-id-crop-item-3)" transform="translate(855.0 347.0) rotate(0.0 65.0 177.0) scale(0.6718346253229974 0.6744141741284054)">
            <g clip-path="url(#clip-path-id-viewbox-item-3)" transform="translate(-0.0 -0.0)">
                

<g>
	<g>
		<path d="M96.8,524.9c-2.8,0-5-2.2-5-5V245.1c0-2.8,2.2-5,5-5s5,2.2,5,5v274.8C101.8,522.7,99.6,524.9,96.8,524.9z" style="fill:#383A48;"/>
	</g>
	<g>
		<g>
			<g>
				<polygon points="188.6,281 5,281 57.3,189.9 96.8,121 136.3,189.9     " style="fill:#7FD6C2;"/>
			</g>
			<g>
				<path d="M188.6,286H5c-1.8,0-3.4-1-4.3-2.5s-0.9-3.4,0-5l91.8-160c0.9-1.6,2.5-2.5,4.3-2.5s3.4,1,4.3,2.5l91.8,160      c0.9,1.5,0.9,3.5,0,5C192,285,190.4,286,188.6,286z M13.7,276H180L96.9,131.1L13.7,276z" style="fill:#383A48;"/>
			</g>
		</g>
		<path d="M140.7,187.4l-39.5-68.9c-0.9-1.6-2.5-2.5-4.3-2.5s-3.4,1-4.3,2.5l-39.5,68.9c-0.9,1.5-0.9,3.5,0,5    s2.5,2.5,4.3,2.5h79c1.8,0,3.4-1,4.3-2.5C141.5,190.8,141.5,188.9,140.7,187.4z" style="fill:#383A48;"/>
		<g>
			<g>
				<polygon points="188.6,165 5,165 96.8,5     " style="fill:#7FD6C2;"/>
			</g>
			<g>
				<path d="M188.6,170H5c-1.8,0-3.4-1-4.3-2.5s-0.9-3.4,0-5l91.8-160C93.4,0.9,95,0,96.8,0s3.4,1,4.3,2.5l91.8,160      c0.9,1.5,0.9,3.5,0,5C192,169.1,190.4,170,188.6,170z M13.7,160H180L96.9,15.1L13.7,160z" style="fill:#383A48;"/>
			</g>
		</g>
		<g>
			<g>
				<g>
					<g>
						<g>
							<circle cx="160.1" cy="261.6" r="5" style="fill:#383A48;"/>
						</g>
					</g>
					<g>
						<g>
							<circle cx="135.4" cy="212.3" r="5" style="fill:#383A48;"/>
						</g>
					</g>
					<g>
						<g>
							<circle cx="135.4" cy="236.9" r="5" style="fill:#383A48;"/>
						</g>
					</g>
					<g>
						<g>
							<circle cx="135.4" cy="261.6" r="5" style="fill:#383A48;"/>
						</g>
					</g>
					<g>
						<g>
							<circle cx="110.7" cy="212.3" r="5" style="fill:#383A48;"/>
						</g>
					</g>
					<g>
						<g>
							<circle cx="110.7" cy="236.9" r="5" style="fill:#383A48;"/>
						</g>
					</g>
					<g>
						<g>
							<circle cx="110.7" cy="261.6" r="5" style="fill:#383A48;"/>
						</g>
					</g>
					<g>
						<g>
							<circle cx="86.1" cy="212.3" r="5" style="fill:#383A48;"/>
						</g>
					</g>
					<g>
						<g>
							<circle cx="86.1" cy="236.9" r="5" style="fill:#383A48;"/>
						</g>
					</g>
					<g>
						<g>
							<circle cx="86.1" cy="261.6" r="5" style="fill:#383A48;"/>
						</g>
					</g>
					<g>
						<g>
							<circle cx="61.4" cy="212.3" r="5" style="fill:#383A48;"/>
						</g>
					</g>
					<g>
						<g>
							<circle cx="61.4" cy="236.9" r="5" style="fill:#383A48;"/>
						</g>
					</g>
					<g>
						<g>
							<circle cx="61.4" cy="261.6" r="5" style="fill:#383A48;"/>
						</g>
					</g>
					<g>
						<g>
							<circle cx="36.7" cy="236.9" r="5" style="fill:#383A48;"/>
						</g>
					</g>
					<g>
						<g>
							<circle cx="36.7" cy="261.6" r="5" style="fill:#383A48;"/>
						</g>
					</g>
				</g>
			</g>
		</g>
	</g>
</g>

            </g>
        </g>
    </g>
    
    <!-- ITEM 4 -->
    <g>
        <defs>
            <clipPath id="clip-path-id-crop-item-4">
                
          <g transform="scale(1.4770992366412214 1.4911931818181818)">
          <rect x="0.0" y="0.0" width="131.0" height="235.0"/>
          </g>
        
            </clipPath>
            
            <clipPath id="clip-path-id-viewbox-item-4">
                <rect x="0.0" y="0.0" width="193.5" height="524.9"/>
            </clipPath>
        </defs>
        <g clip-path="url(#clip-path-id-crop-item-4)" transform="translate(959.0 391.0) rotate(0.0 65.5 176.0) scale(0.6770025839793282 0.6706039245570585)">
            <g clip-path="url(#clip-path-id-viewbox-item-4)" transform="translate(-0.0 -0.0)">
                

<g>
	<g>
		<path d="M96.8,524.9c-2.8,0-5-2.2-5-5V245.1c0-2.8,2.2-5,5-5s5,2.2,5,5v274.8C101.8,522.7,99.6,524.9,96.8,524.9z" style="fill:#383A48;"/>
	</g>
	<g>
		<g>
			<g>
				<polygon points="188.6,281 5,281 57.3,189.9 96.8,121 136.3,189.9     " style="fill:#7FD6C2;"/>
			</g>
			<g>
				<path d="M188.6,286H5c-1.8,0-3.4-1-4.3-2.5s-0.9-3.4,0-5l91.8-160c0.9-1.6,2.5-2.5,4.3-2.5s3.4,1,4.3,2.5l91.8,160      c0.9,1.5,0.9,3.5,0,5C192,285,190.4,286,188.6,286z M13.7,276H180L96.9,131.1L13.7,276z" style="fill:#383A48;"/>
			</g>
		</g>
		<path d="M140.7,187.4l-39.5-68.9c-0.9-1.6-2.5-2.5-4.3-2.5s-3.4,1-4.3,2.5l-39.5,68.9c-0.9,1.5-0.9,3.5,0,5    s2.5,2.5,4.3,2.5h79c1.8,0,3.4-1,4.3-2.5C141.5,190.8,141.5,188.9,140.7,187.4z" style="fill:#383A48;"/>
		<g>
			<g>
				<polygon points="188.6,165 5,165 96.8,5     " style="fill:#7FD6C2;"/>
			</g>
			<g>
				<path d="M188.6,170H5c-1.8,0-3.4-1-4.3-2.5s-0.9-3.4,0-5l91.8-160C93.4,0.9,95,0,96.8,0s3.4,1,4.3,2.5l91.8,160      c0.9,1.5,0.9,3.5,0,5C192,169.1,190.4,170,188.6,170z M13.7,160H180L96.9,15.1L13.7,160z" style="fill:#383A48;"/>
			</g>
		</g>
		<g>
			<g>
				<g>
					<g>
						<g>
							<circle cx="160.1" cy="261.6" r="5" style="fill:#383A48;"/>
						</g>
					</g>
					<g>
						<g>
							<circle cx="135.4" cy="212.3" r="5" style="fill:#383A48;"/>
						</g>
					</g>
					<g>
						<g>
							<circle cx="135.4" cy="236.9" r="5" style="fill:#383A48;"/>
						</g>
					</g>
					<g>
						<g>
							<circle cx="135.4" cy="261.6" r="5" style="fill:#383A48;"/>
						</g>
					</g>
					<g>
						<g>
							<circle cx="110.7" cy="212.3" r="5" style="fill:#383A48;"/>
						</g>
					</g>
					<g>
						<g>
							<circle cx="110.7" cy="236.9" r="5" style="fill:#383A48;"/>
						</g>
					</g>
					<g>
						<g>
							<circle cx="110.7" cy="261.6" r="5" style="fill:#383A48;"/>
						</g>
					</g>
					<g>
						<g>
							<circle cx="86.1" cy="212.3" r="5" style="fill:#383A48;"/>
						</g>
					</g>
					<g>
						<g>
							<circle cx="86.1" cy="236.9" r="5" style="fill:#383A48;"/>
						</g>
					</g>
					<g>
						<g>
							<circle cx="86.1" cy="261.6" r="5" style="fill:#383A48;"/>
						</g>
					</g>
					<g>
						<g>
							<circle cx="61.4" cy="212.3" r="5" style="fill:#383A48;"/>
						</g>
					</g>
					<g>
						<g>
							<circle cx="61.4" cy="236.9" r="5" style="fill:#383A48;"/>
						</g>
					</g>
					<g>
						<g>
							<circle cx="61.4" cy="261.6" r="5" style="fill:#383A48;"/>
						</g>
					</g>
					<g>
						<g>
							<circle cx="36.7" cy="236.9" r="5" style="fill:#383A48;"/>
						</g>
					</g>
					<g>
						<g>
							<circle cx="36.7" cy="261.6" r="5" style="fill:#383A48;"/>
						</g>
					</g>
				</g>
			</g>
		</g>
	</g>
</g>

            </g>
        </g>
    </g>
    
    <!-- ITEM 5 -->
    <g>
        <defs>
            <clipPath id="clip-path-id-viewbox-item-5">
                <rect x="0.0" y="0.0" width="668.2" height="492.2"/>
            </clipPath>
        </defs>
        <g transform="translate(658.0 133.0) rotate(0.0 222.5 164.0) scale(0.665968272972164 0.666395774075579)">
            <g clip-path="url(#clip-path-id-viewbox-item-5)" transform="translate(-0.0 -0.0)">
                
<g>
	<g>
		<rect x="5" y="5" fill="#F3F6E6" width="658.2" height="482.2"/>
		<path fill="#383A48" d="M663.2,492.2H5c-2.8,0-5-2.2-5-5V5c0-2.8,2.2-5,5-5h658.2c2.8,0,5,2.2,5,5v482.2    C668.2,490,666,492.2,663.2,492.2z M10,482.2h648.2V10H10V482.2z"/>
	</g>
	<g>
		<g>
			<rect x="5" y="5" fill="#7FD6C2" width="658.2" height="122.8"/>
		</g>
		<g>
			<path fill="#383A48" d="M663.2,132.8H5c-2.8,0-5-2.2-5-5V5c0-2.8,2.2-5,5-5h658.2c2.8,0,5,2.2,5,5v122.8     C668.2,130.6,666,132.8,663.2,132.8z M10,122.8h648.2V10H10V122.8z"/>
		</g>
	</g>
	<g>
		<g>
			<g>
				
					<rect x="594.504" y="49.871" transform="matrix(0.7071 -0.7071 0.7071 0.7071 128.6592 443.3528)" fill="#383A48" width="10" height="33"/>
			</g>
			<g>
				
					<rect x="583.155" y="61.233" transform="matrix(0.7072 -0.7071 0.7071 0.7072 128.7742 443.3867)" fill="#383A48" width="33.002" height="10.001"/>
			</g>
		</g>
		<g>
			<path fill="#383A48" d="M568,84.1h-35.5V48.6H568V84.1z M542.6,74.1h15.5V58.6h-15.5V74.1z"/>
		</g>
		<g>
			<rect x="486.9" y="74.1" fill="#383A48" width="25.5" height="10"/>
		</g>
	</g>
</g>

            </g>
        </g>
    </g>
    
    <!-- ITEM 6 -->
    <g>
        <defs>
            <clipPath id="clip-path-id-viewbox-item-6">
                <rect x="0.0" y="0.0" width="692.8" height="742.8"/>
            </clipPath>
        </defs>
        <g transform="translate(377.0 136.0) rotate(0.0 231.5 247.5) scale(0.6683025404157045 0.6663974151857835)">
            <g clip-path="url(#clip-path-id-viewbox-item-6)" transform="translate(-0.0 -0.0)">
                

<g>
	<g>
		<path d="M512.3,342.3c0-56.4-46.1-102-102.7-101.3c-53.5,0.7-97.6,43.7-99.7,97.1c-1.1,28,9.1,53.5,26.5,72.5    l63.6,97.6c17.2,26.4,19.6,60,5.6,88.3c-34.5,69.9-23,141.3-23,141.3h48.6c0-88.2,31.3-140.6,52.5-166    c12.6-15.1,19.9-34,20.7-53.7l6.7-160.1l0,0C511.9,352.9,512.3,347.6,512.3,342.3z" style="fill:#E0719E;"/>
		<path d="M431.2,742.8h-48.6c-2.5,0-4.5-1.8-4.9-4.2c-0.5-3-11.3-73.8,23.4-144.3c13-26.4,11-58.3-5.3-83.3l-63.5-97.3    c-18.8-20.8-28.6-47.6-27.5-75.7c1.1-27.1,12.5-52.6,32.1-71.7c19.6-19.1,45.4-29.8,72.6-30.2c28.6-0.4,55.7,10.5,76.1,30.6    c20.4,20.1,31.6,47,31.6,75.7c0,5.4-0.4,10.9-1.2,16.2l-6.7,159.8c-0.9,20.8-8.6,40.9-21.9,56.7C468.2,598,436,649.6,436,737.9    C436.2,740.5,433.9,742.8,431.2,742.8z M387,732.8h39.2c1.2-88.4,34-140.7,53.7-164.2c11.8-14.1,18.8-32.1,19.5-50.7l6.7-160.1    c0-0.2,0-0.4,0.1-0.6c0.8-4.9,1.2-10,1.2-15c0-26-10.2-50.3-28.7-68.5s-43-28.1-69-27.7c-24.6,0.3-47.9,10.1-65.7,27.4    s-28.1,40.4-29.1,65c-1,25.6,7.9,50.1,25.2,68.9c0.2,0.2,0.4,0.4,0.5,0.6l63.6,97.6c18.2,27.9,20.5,63.7,5.9,93.2    C381.4,656.8,385.2,716.6,387,732.8z" style="fill:#383A48;"/>
	</g>
	<path d="M509.5,482.1l-37.3-81c-0.9-2-3.1-3.2-5.4-2.8l-123,20.4c-1.7,0.3-3.1,1.4-3.8,2.9s-0.5,3.3,0.4,4.7l37.5,57.5   c0.9,1.4,2.4,2.2,4.1,2.3l122.8,3.1h0.1c1.7,0,3.2-0.8,4.2-2.2C510.1,485.5,510.3,483.6,509.5,482.1z" style="fill:#383A48;"/>
	<g>
		<path d="M104.9,331.9v405.8h46.6c0,0,0-6.2,0-79.1s18.3-199.1,68.1-244.4L104.9,331.9z" style="fill:#E0719E;"/>
		<path d="M151.5,742.8h-46.6c-2.8,0-5-2.2-5-5V331.9c0-1.9,1-3.6,2.7-4.4c1.7-0.9,3.7-0.7,5.2,0.4l114.7,82.3    c1.2,0.9,2,2.3,2.1,3.8s-0.5,3-1.6,4c-21.4,19.5-39.1,57.3-51.2,109.4c-9.5,41-15.3,90.1-15.3,131.4v79.1    C156.5,740.5,154.3,742.8,151.5,742.8z M109.9,732.8h36.6v-74.1c0-72,17.5-194.1,65.3-243.9l-101.9-73.2L109.9,732.8L109.9,732.8z    " style="fill:#383A48;"/>
	</g>
	<path d="M208.6,432.8c-0.1-1.5-0.8-2.8-2-3.6l-98.7-72.7c-1.5-1.1-3.5-1.3-5.2-0.4s-2.7,2.6-2.7,4.5v52   c0,1.2,0.4,2.3,1.2,3.2l70.3,83c1,1.1,2.4,1.8,3.8,1.8c0.3,0,0.7,0,1-0.1c1.8-0.4,3.2-1.7,3.8-3.5c3.9-13.1,16.4-49.5,27.2-60.2   C208.2,435.7,208.8,434.2,208.6,432.8z" style="fill:#383A48;"/>
	<g>
		<path d="M522.6,443.5h-306c-61.6,0-111.6-50-111.6-111.6V241h417.6c55.9,0,101.3,45.3,101.3,101.3l0,0    C623.8,398.2,578.5,443.5,522.6,443.5z" style="fill:#E0719E;"/>
		<path d="M522.6,448.5h-306c-64.3,0-116.6-52.3-116.6-116.6V241c0-2.8,2.2-5,5-5h417.6c58.6,0,106.3,47.7,106.3,106.3    C628.9,400.9,581.2,448.5,522.6,448.5z M109.9,246v85.9c0,58.8,47.8,106.6,106.6,106.6h306c53.1,0,96.3-43.2,96.3-96.3    s-43.2-96.3-96.3-96.3L109.9,246L109.9,246z" style="fill:#383A48;"/>
	</g>
	<g>
		<path d="M239.1,441.5V122.3l90.1-31.9c6.9-2.5,11.6-9,11.6-16.4v-9.8c0-7.5-4.8-14.1-11.9-16.5L210.3,8.6    C203.2,6.2,195.7,5,188.2,5h-83.3v337.2c0,54.8,44.4,99.3,99.3,99.3H239.1z" style="fill:#E0719E;"/>
		<path d="M239.1,446.5h-34.8c-57.5,0-104.3-46.8-104.3-104.3V5.1c0-2.8,2.2-5,5-5h83.3c8.1,0,16,1.3,23.7,3.8L330.6,43    c9.2,3,15.4,11.6,15.4,21.2V74c0,9.5-6,17.9-14.9,21.1l-86.8,30.7v315.7C244.1,444.3,241.8,446.5,239.1,446.5z M109.9,10.1v332.2    c0,52,42.3,94.3,94.3,94.3H234V122.3c0-2.1,1.3-4,3.3-4.7l90.1-31.9c4.9-1.7,8.2-6.4,8.2-11.7v-9.8c0-5.4-3.4-10.1-8.5-11.7    L208.5,13.4c-6.6-2.2-13.5-3.3-20.5-3.3L109.9,10.1L109.9,10.1z" style="fill:#383A48;"/>
	</g>
	<g>
		<path d="M55,59.7L55,59.7c27.6,0,50-22.4,50-50V5H5.1v4.7C5,37.3,27.4,59.7,55,59.7z" style="fill:#E0719E;"/>
		<path d="M55,64.7C24.7,64.7,0,40,0,9.7V5c0-2.8,2.2-5,5-5h99.9c2.8,0,5,2.2,5,5v4.7C109.9,40,85.3,64.7,55,64.7z     M10,10.1c0.2,24.6,20.3,44.6,45,44.6s44.8-20,45-44.6H10z" style="fill:#383A48;"/>
	</g>
	<g>
		<path d="M447.9,410.6l63.6,97.6c17.2,26.4,19.6,60,5.6,88.3c-34.5,69.9-23,141.3-23,141.3h48.6    c0-88.2,31.3-140.6,52.5-166c12.6-15.1,19.9-34,20.7-53.7l6.7-160.1l0,0c0.8-5.1,1.2-10.4,1.2-15.7c0-56.4-46.1-102-102.7-101.3" style="fill:#E0719E;"/>
		<path d="M542.7,742.8h-48.6c-2.5,0-4.5-1.8-4.9-4.2c-0.5-3-11.3-73.8,23.4-144.3c13-26.4,11-58.3-5.3-83.3l-63.6-97.6    c-1.5-2.3-0.9-5.4,1.5-6.9c2.3-1.5,5.4-0.9,6.9,1.5l63.6,97.6c18.2,27.9,20.5,63.7,5.9,93.2c-28.7,58.1-24.8,118-23.1,134.1h39.2    c1.2-88.4,34-140.7,53.7-164.2c11.8-14.1,18.8-32.1,19.5-50.7l6.7-160.1c0-0.2,0-0.4,0.1-0.6c0.8-4.9,1.2-10,1.2-15    c0-26-10.2-50.3-28.7-68.5s-42.9-28.1-69-27.7c-2.7,0-5-2.2-5.1-4.9c0-2.8,2.2-5,4.9-5.1c28.7-0.4,55.7,10.5,76.1,30.6    c20.4,20.1,31.6,47,31.6,75.7c0,5.4-0.4,10.9-1.2,16.2l-6.7,159.8c-0.9,20.8-8.6,40.9-21.8,56.7c-19.2,22.9-51.4,74.5-51.4,162.8    C547.7,740.5,545.5,742.8,542.7,742.8z" style="fill:#383A48;"/>
	</g>
	<g>
		<path d="M687.8,441.8h-6.9c-31.5,0-57-25.5-57-57v-42.5h6.9c31.5,0,57,25.5,57,57V441.8z" style="fill:#E0719E;"/>
		<path d="M687.8,446.8h-6.9c-34.2,0-62-27.8-62-62v-42.5c0-2.8,2.2-5,5-5h6.9c34.2,0,62,27.8,62,62v42.5    C692.8,444.5,690.6,446.8,687.8,446.8z M628.8,347.3v37.5c0,28.7,23.3,52,52,52h1.9v-37.5c0-28.7-23.3-52-52-52H628.8z" style="fill:#383A48;"/>
	</g>
	<path d="M330.4,43l-19.1-6.3c-1.8-0.6-3.7-0.1-5.1,1.2c-1.3,1.3-1.8,3.3-1.3,5l15.5,50.4c0.4,1.3,1.3,2.4,2.5,3   c0.7,0.4,1.5,0.5,2.2,0.5c0.6,0,1.1-0.1,1.7-0.3l3.9-1.4c8.9-3.2,14.9-11.6,14.9-21.1v-9.8C345.8,54.6,339.6,46.1,330.4,43z" style="fill:#383A48;"/>
	<g>
		<circle cx="199.2" cy="50.5" r="4.5" style="fill:#F6E049;"/>
		<path d="M199.2,60.1c-5.3,0-9.5-4.3-9.5-9.5c0-5.2,4.3-9.5,9.5-9.5c5.3,0,9.5,4.3,9.5,9.5    C208.7,55.8,204.4,60.1,199.2,60.1z M199.2,50.1c-0.3,0-0.5,0.2-0.5,0.5s0.2,0.5,0.5,0.5s0.5-0.2,0.5-0.5    C199.6,50.3,199.4,50.1,199.2,50.1z" style="fill:#383A48;"/>
	</g>
	<g>
		<path d="M203.9,443.5h35.2V122H105.6v223.3C105.6,399.5,149.6,443.5,203.9,443.5z" style="fill:#F3F6E6;"/>
		<path d="M239.1,448.5h-35.2c-56.9,0-103.3-46.3-103.3-103.3V122c0-2.8,2.2-5,5-5h133.5c2.8,0,5,2.2,5,5v321.5    C244.1,446.3,241.8,448.5,239.1,448.5z M110.6,127v218.3c0,51.4,41.8,93.3,93.3,93.3h30.2V127H110.6z" style="fill:#383A48;"/>
	</g>
	<path d="M244,121.1c-0.4-2.4-2.5-4.1-4.9-4.1H105.6c-2.8,0-5,2.2-5,5v52c0,1.7,0.8,3.2,2.2,4.1   c0.8,0.6,1.8,0.9,2.8,0.9c0.6,0,1.2-0.1,1.8-0.3l133.5-52C243.1,125.8,244.4,123.5,244,121.1z" style="fill:#383A48;"/>
	<g>
		<path d="M239.1,414.3v323.5h46.6c0,0,0-6.2,0-79.1c0-61.9,13.2-162.4,47.8-219c11.7-19.2,14.6-42.4,7.5-63.7l-0.1-0.3    " style="fill:#E0719E;"/>
		<path d="M285.7,742.8h-46.6c-2.8,0-5-2.2-5-5V414.3c0-2.8,2.2-5,5-5s5,2.2,5,5v318.5h36.6v-74.1    c0-68.4,15.2-167,48.5-221.6c11.1-18.1,13.6-39.8,7-59.5l-0.1-0.3c-0.9-2.6,0.5-5.5,3.1-6.3c2.6-0.9,5.5,0.5,6.3,3.1l0.1,0.3    c7.5,22.5,4.6,47.3-7.9,67.9c-32.3,53-47,149.3-47,216.4v79.1C290.7,740.5,288.4,742.8,285.7,742.8z" style="fill:#383A48;"/>
	</g>
	<g>
		<path d="M542,702.2h-47.9c-2.8,0-5,2.2-5,5v30.6c0,2.8,2.2,5,5,5H542c2.8,0,5-2.2,5-5v-30.6    C547,704.4,544.8,702.2,542,702.2z" style="fill:#383A48;"/>
		<path d="M430,702.2h-47.9c-2.8,0-5,2.2-5,5v30.6c0,2.8,2.2,5,5,5H430c2.8,0,5-2.2,5-5v-30.6    C435,704.4,432.8,702.2,430,702.2z" style="fill:#383A48;"/>
		<path d="M283.7,702.2H239c-2.8,0-5,2.2-5,5v30.6c0,2.8,2.2,5,5,5h44.7c2.8,0,5-2.2,5-5v-30.6    C288.7,704.4,286.5,702.2,283.7,702.2z" style="fill:#383A48;"/>
		<path d="M150.3,702.2h-44.7c-2.8,0-5,2.2-5,5v30.6c0,2.8,2.2,5,5,5h44.7c2.8,0,5-2.2,5-5v-30.6    C155.3,704.4,153.1,702.2,150.3,702.2z" style="fill:#383A48;"/>
	</g>
	<g>
		<circle cx="493.4" cy="274.4" r="8.4" style="fill:#F3F6E6;"/>
	</g>
	<g>
		<circle cx="544.2" cy="282.8" r="8.4" style="fill:#F3F6E6;"/>
	</g>
	<g>
		<circle cx="563.4" cy="316.6" r="8.4" style="fill:#F3F6E6;"/>
	</g>
	<g>
		<circle cx="510.1" cy="312.1" r="8.4" style="fill:#F3F6E6;"/>
	</g>
</g>

            </g>
        </g>
    </g>
    
    <!-- ITEM 7 -->
    <g>
        <defs>
            <clipPath id="clip-path-id-viewbox-item-7">
                <rect x="0.0" y="0.0" width="207.6" height="207.6"/>
            </clipPath>
        </defs>
        <g transform="translate(934.0 255.0) rotate(0.0 69.5 69.5) scale(0.6695568400770713 0.6695568400770713)">
            <g clip-path="url(#clip-path-id-viewbox-item-7)" transform="translate(-0.0 -0.0)">
                
<g>
	<g>
		<circle fill="#F6E049" cx="103.8" cy="103.8" r="98.8"/>
		<path fill="#383A48" d="M103.8,207.6C46.5,207.6,0,161,0,103.8S46.6,0,103.8,0s103.8,46.6,103.8,103.8    C207.6,161,161,207.6,103.8,207.6z M103.8,9.9C52.1,9.9,10,52,10,103.7s42.1,93.8,93.8,93.8s93.8-42.1,93.8-93.8    S155.5,9.9,103.8,9.9z"/>
	</g>
</g>

            </g>
        </g>
    </g>
    
    <!-- ITEM 8 -->
    <g>
        <defs>
            <clipPath id="clip-path-id-viewbox-item-8">
                <rect x="0.0" y="0.0" width="207.6" height="207.6"/>
            </clipPath>
        </defs>
        <g transform="translate(882.0 255.0) rotate(0.0 70.0 70.0) scale(0.674373795761079 0.674373795761079)">
            <g clip-path="url(#clip-path-id-viewbox-item-8)" transform="translate(-0.0 -0.0)">
                
<g>
	<g>
		<circle fill="#F6E049" cx="103.8" cy="103.8" r="98.8"/>
		<path fill="#383A48" d="M103.8,207.6C46.5,207.6,0,161,0,103.8S46.6,0,103.8,0s103.8,46.6,103.8,103.8    C207.6,161,161,207.6,103.8,207.6z M103.8,9.9C52.1,9.9,10,52,10,103.7s42.1,93.8,93.8,93.8s93.8-42.1,93.8-93.8    S155.5,9.9,103.8,9.9z"/>
	</g>
</g>

            </g>
        </g>
    </g>
    
    <!-- ITEM 9 -->
    <g>
        <defs>
            <clipPath id="clip-path-id-viewbox-item-9">
                <rect x="0.0" y="0.0" width="207.6" height="207.6"/>
            </clipPath>
        </defs>
        <g transform="translate(829.0 254.0) rotate(0.0 70.0 70.0) scale(0.674373795761079 0.674373795761079)">
            <g clip-path="url(#clip-path-id-viewbox-item-9)" transform="translate(-0.0 -0.0)">
                
<g>
	<g>
		<circle fill="#F6E049" cx="103.8" cy="103.8" r="98.8"/>
		<path fill="#383A48" d="M103.8,207.6C46.5,207.6,0,161,0,103.8S46.6,0,103.8,0s103.8,46.6,103.8,103.8    C207.6,161,161.1,207.6,103.8,207.6z M103.8,9.9C52.1,9.9,10,52,10,103.7s42.1,93.8,93.8,93.8s93.8-42.1,93.8-93.8    S155.6,9.9,103.8,9.9z"/>
	</g>
	<g>
		<circle fill="#383A48" cx="72.2" cy="89.4" r="10.6"/>
	</g>
	<g>
		<circle fill="#383A48" cx="135.4" cy="89.4" r="10.6"/>
	</g>
	<g>
		<path fill="#383A48" d="M103.8,149.2c-15.6,0-29.9-9.2-36.4-23.3c-1.2-2.5,0-5.5,2.5-6.6c2.5-1.2,5.5,0,6.6,2.5    c4.9,10.6,15.6,17.5,27.3,17.5c11.7,0,22.4-6.9,27.3-17.5c1.2-2.5,4.1-3.6,6.6-2.5c2.5,1.2,3.6,4.1,2.5,6.6    C133.7,140,119.4,149.2,103.8,149.2z"/>
	</g>
</g>

            </g>
        </g>
    </g>
    
    <!-- ITEM 10 -->
    <g>
        <defs>
            <clipPath id="clip-path-id-viewbox-item-10">
                <rect x="0.0" y="0.0" width="220.55" height="680.9"/>
            </clipPath>
        </defs>
        <g transform="translate(182.0 177.0) rotate(0.0 73.5 227.0) scale(0.6665155293584221 0.6667645762960788)">
            <g clip-path="url(#clip-path-id-viewbox-item-10)" transform="translate(-0.0 -0.0)">
                
<g>
	<g>
		<path fill="#383A48" d="M110.275,680.9c-2.8,0-5-2.2-5-5V280.4c0-2.8,2.2-5,5-5s5,2.2,5,5v395.5    C115.275,678.6,112.975,680.9,110.275,680.9z"/>
	</g>
	<g>
		<g>
			<g>
				<polygon fill="#7FD6C2" points="215.575,321.5 4.975,321.5 64.975,217 110.275,138 155.575,217     "/>
			</g>
			<g>
				<path fill="#383A48" d="M215.575,326.5H4.975c-1.8,0-3.4-1-4.3-2.5s-0.9-3.4,0-5l105.3-183.5c0.9-1.6,2.5-2.5,4.3-2.5      s3.4,1,4.3,2.5l105.3,183.5c0.9,1.5,0.9,3.5,0,5C218.975,325.6,217.375,326.5,215.575,326.5z M13.575,316.5h193.3l-96.7-168.5      L13.575,316.5z"/>
			</g>
		</g>
		<g>
			<g>
				<g>
					<g>
						<g>
							<circle fill="#383A48" cx="193.175" cy="303.9" r="5"/>
						</g>
					</g>
					<g>
						<g>
							<circle fill="#383A48" cx="168.575" cy="254.6" r="5"/>
						</g>
					</g>
					<g>
						<g>
							<circle fill="#383A48" cx="168.575" cy="279.3" r="5"/>
						</g>
					</g>
					<g>
						<g>
							<circle fill="#383A48" cx="168.575" cy="303.9" r="5"/>
						</g>
					</g>
					<g>
						<g>
							<circle fill="#383A48" cx="143.875" cy="205.3" r="5"/>
						</g>
					</g>
					<g>
						<g>
							<circle fill="#383A48" cx="143.875" cy="229.9" r="5"/>
						</g>
					</g>
					<g>
						<g>
							<circle fill="#383A48" cx="143.875" cy="254.6" r="5"/>
						</g>
					</g>
					<g>
						<g>
							<circle fill="#383A48" cx="143.875" cy="279.3" r="5"/>
						</g>
					</g>
					<g>
						<g>
							<circle fill="#383A48" cx="143.875" cy="303.9" r="5"/>
						</g>
					</g>
					<g>
						<g>
							<circle fill="#383A48" cx="119.175" cy="180.6" r="5"/>
						</g>
					</g>
					<g>
						<g>
							<circle fill="#383A48" cx="119.175" cy="205.3" r="5"/>
						</g>
					</g>
					<g>
						<g>
							<circle fill="#383A48" cx="119.175" cy="229.9" r="5"/>
						</g>
					</g>
					<g>
						<g>
							<circle fill="#383A48" cx="119.175" cy="254.6" r="5"/>
						</g>
					</g>
					<g>
						<g>
							<circle fill="#383A48" cx="119.175" cy="279.3" r="5"/>
						</g>
					</g>
					<g>
						<g>
							<circle fill="#383A48" cx="119.175" cy="303.9" r="5"/>
						</g>
					</g>
					<g>
						<g>
							<circle fill="#383A48" cx="94.575" cy="180.6" r="5"/>
						</g>
					</g>
					<g>
						<g>
							<circle fill="#383A48" cx="94.575" cy="205.3" r="5"/>
						</g>
					</g>
					<g>
						<g>
							<circle fill="#383A48" cx="94.575" cy="229.9" r="5"/>
						</g>
					</g>
					<g>
						<g>
							<circle fill="#383A48" cx="94.575" cy="254.6" r="5"/>
						</g>
					</g>
					<g>
						<g>
							<circle fill="#383A48" cx="94.575" cy="279.3" r="5"/>
						</g>
					</g>
					<g>
						<g>
							<circle fill="#383A48" cx="94.575" cy="303.9" r="5"/>
						</g>
					</g>
					<g>
						<g>
							<circle fill="#383A48" cx="69.875" cy="229.9" r="5"/>
						</g>
					</g>
					<g>
						<g>
							<circle fill="#383A48" cx="69.875" cy="254.6" r="5"/>
						</g>
					</g>
					<g>
						<g>
							<circle fill="#383A48" cx="69.875" cy="279.3" r="5"/>
						</g>
					</g>
					<g>
						<g>
							<circle fill="#383A48" cx="69.875" cy="303.9" r="5"/>
						</g>
					</g>
					<g>
						<g>
							<circle fill="#383A48" cx="45.175" cy="254.6" r="5"/>
						</g>
					</g>
					<g>
						<g>
							<circle fill="#383A48" cx="45.175" cy="279.3" r="5"/>
						</g>
					</g>
					<g>
						<g>
							<circle fill="#383A48" cx="45.175" cy="303.9" r="5"/>
						</g>
					</g>
					<g>
						<g>
							<circle fill="#383A48" cx="20.575" cy="303.9" r="5"/>
						</g>
					</g>
				</g>
			</g>
		</g>
		<path fill="#383A48" d="M159.875,214.5l-45.3-79c-0.9-1.6-2.5-2.5-4.3-2.5s-3.4,1-4.3,2.5l-45.3,79c-0.9,1.5-0.9,3.5,0,5    s2.5,2.5,4.3,2.5h90.6c1.8,0,3.4-1,4.3-2.5C160.775,217.9,160.775,216,159.875,214.5z"/>
		<g>
			<g>
				<polygon fill="#7FD6C2" points="215.575,188.5 4.975,188.5 110.275,4.9     "/>
			</g>
			<g>
				<path fill="#383A48" d="M215.575,193.5H4.975c-1.8,0-3.4-1-4.3-2.5s-0.9-3.4,0-5l105.3-183.5c0.9-1.6,2.5-2.5,4.3-2.5      s3.4,1,4.3,2.5l105.3,183.5c0.9,1.5,0.9,3.5,0,5S217.375,193.5,215.575,193.5z M13.575,183.5h193.3L110.175,15L13.575,183.5z"/>
			</g>
		</g>
	</g>
</g>

            </g>
        </g>
    </g>
    
    <!-- ITEM 11 -->
    <g>
        <defs>
            <clipPath id="clip-path-id-viewbox-item-11">
                <rect x="0.0" y="0.0" width="193.5" height="524.9"/>
            </clipPath>
        </defs>
        <g transform="translate(319.0 282.0) rotate(0.0 65.0 175.0) scale(0.6718346253229974 0.6667936749857116)">
            <g clip-path="url(#clip-path-id-viewbox-item-11)" transform="translate(-0.0 -0.0)">
                

<g>
	<g>
		<path d="M96.8,524.9c-2.8,0-5-2.2-5-5V245.1c0-2.8,2.2-5,5-5s5,2.2,5,5v274.8C101.8,522.7,99.6,524.9,96.8,524.9z" style="fill:#383A48;"/>
	</g>
	<g>
		<g>
			<g>
				<polygon points="188.6,281 5,281 57.3,189.9 96.8,121 136.3,189.9     " style="fill:#7FD6C2;"/>
			</g>
			<g>
				<path d="M188.6,286H5c-1.8,0-3.4-1-4.3-2.5s-0.9-3.4,0-5l91.8-160c0.9-1.6,2.5-2.5,4.3-2.5s3.4,1,4.3,2.5l91.8,160      c0.9,1.5,0.9,3.5,0,5C192,285,190.4,286,188.6,286z M13.7,276H180L96.9,131.1L13.7,276z" style="fill:#383A48;"/>
			</g>
		</g>
		<path d="M140.7,187.4l-39.5-68.9c-0.9-1.6-2.5-2.5-4.3-2.5s-3.4,1-4.3,2.5l-39.5,68.9c-0.9,1.5-0.9,3.5,0,5    s2.5,2.5,4.3,2.5h79c1.8,0,3.4-1,4.3-2.5C141.5,190.8,141.5,188.9,140.7,187.4z" style="fill:#383A48;"/>
		<g>
			<g>
				<polygon points="188.6,165 5,165 96.8,5     " style="fill:#7FD6C2;"/>
			</g>
			<g>
				<path d="M188.6,170H5c-1.8,0-3.4-1-4.3-2.5s-0.9-3.4,0-5l91.8-160C93.4,0.9,95,0,96.8,0s3.4,1,4.3,2.5l91.8,160      c0.9,1.5,0.9,3.5,0,5C192,169.1,190.4,170,188.6,170z M13.7,160H180L96.9,15.1L13.7,160z" style="fill:#383A48;"/>
			</g>
		</g>
		<g>
			<g>
				<g>
					<g>
						<g>
							<circle cx="160.1" cy="261.6" r="5" style="fill:#383A48;"/>
						</g>
					</g>
					<g>
						<g>
							<circle cx="135.4" cy="212.3" r="5" style="fill:#383A48;"/>
						</g>
					</g>
					<g>
						<g>
							<circle cx="135.4" cy="236.9" r="5" style="fill:#383A48;"/>
						</g>
					</g>
					<g>
						<g>
							<circle cx="135.4" cy="261.6" r="5" style="fill:#383A48;"/>
						</g>
					</g>
					<g>
						<g>
							<circle cx="110.7" cy="212.3" r="5" style="fill:#383A48;"/>
						</g>
					</g>
					<g>
						<g>
							<circle cx="110.7" cy="236.9" r="5" style="fill:#383A48;"/>
						</g>
					</g>
					<g>
						<g>
							<circle cx="110.7" cy="261.6" r="5" style="fill:#383A48;"/>
						</g>
					</g>
					<g>
						<g>
							<circle cx="86.1" cy="212.3" r="5" style="fill:#383A48;"/>
						</g>
					</g>
					<g>
						<g>
							<circle cx="86.1" cy="236.9" r="5" style="fill:#383A48;"/>
						</g>
					</g>
					<g>
						<g>
							<circle cx="86.1" cy="261.6" r="5" style="fill:#383A48;"/>
						</g>
					</g>
					<g>
						<g>
							<circle cx="61.4" cy="212.3" r="5" style="fill:#383A48;"/>
						</g>
					</g>
					<g>
						<g>
							<circle cx="61.4" cy="236.9" r="5" style="fill:#383A48;"/>
						</g>
					</g>
					<g>
						<g>
							<circle cx="61.4" cy="261.6" r="5" style="fill:#383A48;"/>
						</g>
					</g>
					<g>
						<g>
							<circle cx="36.7" cy="236.9" r="5" style="fill:#383A48;"/>
						</g>
					</g>
					<g>
						<g>
							<circle cx="36.7" cy="261.6" r="5" style="fill:#383A48;"/>
						</g>
					</g>
				</g>
			</g>
		</g>
	</g>
</g>

            </g>
        </g>
    </g>
    
    <!-- ITEM 12 -->
    <g>
        <defs>
            <clipPath id="clip-path-id-viewbox-item-12">
                <rect x="0.0" y="0.0" width="266.412" height="266.412"/>
            </clipPath>
        </defs>
        <g transform="translate(183.0 84.0) rotate(0.0 34.0 34.0) scale(0.25524375778868824 0.25524375778868824)">
            <g clip-path="url(#clip-path-id-viewbox-item-12)" transform="translate(-0.0 -0.0)">
                <title>circle_2 copy 4</title><g id="Layer_2-i12" data-name="Layer 2"><g id="circle_2_copy_4-i12" data-name="circle_2 copy 4"><circle cx="133.206" cy="133.206" r="128.206" fill="#f6e049"/><path d="M133.206,266.412C59.755,266.412,0,206.656,0,133.206S59.755,0,133.206,0,266.412,59.756,266.412,133.206,206.656,266.412,133.206,266.412Zm0-256.412A123.206,123.206,0,1,0,256.412,133.206,123.346,123.346,0,0,0,133.206,10Z" fill="#f6e049"/></g></g>
            </g>
        </g>
    </g>
    
    <!-- ITEM 13 -->
    <g>
        <defs>
            <clipPath id="clip-path-id-viewbox-item-13">
                <rect x="0.0" y="0.0" width="203.9" height="203.9"/>
            </clipPath>
        </defs>
        <g transform="translate(139.0 409.0) rotate(0.0 66.5 66.5) scale(0.6522805296714075 0.6522805296714075)">
            <g clip-path="url(#clip-path-id-viewbox-item-13)" transform="translate(-0.0 -0.0)">
                

<g id="Layer_1_1_-i13">
	<g>
		<path d="M5,203.9c-1.3,0-2.6-0.5-3.5-1.5c-2-2-2-5.1,0-7.1L195.4,1.5c2-2,5.1-2,7.1,0c2,2,2,5.1,0,7.1L8.5,202.4    C7.6,203.4,6.3,203.9,5,203.9z" style="fill:#f6e049;"/>
	</g>
</g>
<g id="Isolation_Mode-i13">
</g>

            </g>
        </g>
    </g>
    
    <!-- ITEM 14 -->
    <g>
        <defs>
            <clipPath id="clip-path-id-viewbox-item-14">
                <rect x="0.0" y="0.0" width="45.2" height="51.0"/>
            </clipPath>
        </defs>
        <g transform="translate(349.0 193.0) rotate(0.0 15.5 17.0) scale(0.6858407079646017 0.6666666666666666)">
            <g clip-path="url(#clip-path-id-viewbox-item-14)" transform="translate(-0.0 -0.0)">
                <path d="M40.2,20.5C28.8,20.5,27.6,9.6,27.6,5a5,5,0,0,0-10,0c0,4.7-1.2,15.5-12.6,15.5a5,5,0,0,0,0,10c11.4,0,12.6,10.9,12.6,15.5a5,5,0,0,0,10,0c0-4.7,1.2-15.5,12.6-15.5a4.951,4.951,0,0,0,5-5A5.015,5.015,0,0,0,40.2,20.5Z" fill="#383a48"/>
            </g>
        </g>
    </g>
    
    <!-- ITEM 15 -->
    <g>
        <defs>
            <clipPath id="clip-path-id-viewbox-item-15">
                <rect x="0.0" y="0.0" width="45.2" height="51.0"/>
            </clipPath>
        </defs>
        <g transform="translate(801.0 554.0) rotate(0.0 15.0 16.5) scale(0.663716814159292 0.6470588235294118)">
            <g clip-path="url(#clip-path-id-viewbox-item-15)" transform="translate(-0.0 -0.0)">
                <path d="M40.2,20.5C28.8,20.5,27.6,9.6,27.6,5a5,5,0,0,0-10,0c0,4.7-1.2,15.5-12.6,15.5a5,5,0,0,0,0,10c11.4,0,12.6,10.9,12.6,15.5a5,5,0,0,0,10,0c0-4.7,1.2-15.5,12.6-15.5a4.951,4.951,0,0,0,5-5A5.015,5.015,0,0,0,40.2,20.5Z" fill="#383a48"/>
            </g>
        </g>
    </g>
    
    <!-- ITEM 16 -->
    <g>
        <defs>
            <clipPath id="clip-path-id-viewbox-item-16">
                <rect x="0.0" y="0.0" width="1380.9" height="10.0"/>
            </clipPath>
        </defs>
        <g transform="translate(181.0 625.0) rotate(0.0 461.5 3.5) scale(0.6684046636251719 0.7)">
            <g clip-path="url(#clip-path-id-viewbox-item-16)" transform="translate(-0.0 -0.0)">
                
<g>
	<path fill="#383A48" d="M1375.9,10H5c-2.8,0-5-2.2-5-5s2.2-5,5-5h1370.9c2.8,0,5,2.2,5,5S1378.7,10,1375.9,10z"/>
</g>

            </g>
        </g>
    </g>
    
</svg>